<svg aria-hidden="true" style="position: absolute; width: 0; height: 0; overflow: hidden;" version="1.1" xmlns="http://www.w3.org/2000/svg" xmlns:xlink="http://www.w3.org/1999/xlink">
<defs>
<symbol id="icon-antiEye" viewBox="0 0 32 32">
<path fill="#f3f3f3" style="fill: var(--color1, #f3f3f3)" d="M21.467 17.733l-1.933-1.933c0.2-1.044-0.1-2.022-0.9-2.933s-1.833-1.267-3.1-1.067l-1.933-1.933c0.378-0.178 0.761-0.311 1.149-0.4s0.806-0.133 1.251-0.133c1.667 0 3.084 0.583 4.251 1.749s1.749 2.584 1.749 4.251c0 0.444-0.044 0.861-0.133 1.251s-0.222 0.772-0.4 1.149zM25.733 21.933l-1.933-1.867c0.844-0.644 1.595-1.35 2.251-2.117s1.216-1.638 1.683-2.616c-1.111-2.244-2.706-4.028-4.784-5.351s-4.394-1.983-6.949-1.983c-0.644 0-1.278 0.044-1.9 0.133s-1.233 0.222-1.833 0.4l-2.067-2.067c0.911-0.378 1.844-0.661 2.8-0.851s1.956-0.283 3-0.283c3.356 0 6.344 0.928 8.967 2.783s4.522 4.262 5.7 7.217c-0.511 1.311-1.183 2.528-2.016 3.651s-1.806 2.105-2.917 2.949zM26.4 30.133l-5.6-5.533c-0.778 0.244-1.561 0.428-2.349 0.551s-1.606 0.183-2.451 0.183c-3.356 0-6.344-0.928-8.967-2.783s-4.522-4.262-5.7-7.217c0.467-1.178 1.056-2.272 1.767-3.284s1.522-1.916 2.433-2.716l-3.667-3.733 1.867-1.867 24.533 24.533-1.867 1.867zM7.4 11.2c-0.644 0.578-1.233 1.211-1.767 1.9s-0.989 1.433-1.367 2.233c1.111 2.244 2.705 4.028 4.783 5.349s4.395 1.984 6.951 1.984c0.444 0 0.878-0.028 1.3-0.083s0.856-0.117 1.3-0.184l-1.2-1.267c-0.244 0.067-0.478 0.116-0.7 0.149s-0.456 0.051-0.7 0.051c-1.667 0-3.084-0.583-4.251-1.749s-1.749-2.584-1.749-4.251c0-0.244 0.016-0.478 0.049-0.7s0.084-0.456 0.151-0.7l-2.8-2.733z"></path>
</symbol>
<symbol id="icon-calendar" viewBox="0 0 32 32">
<path fill="none" stroke="#f3f3f3" style="stroke: var(--color1, #f3f3f3)" stroke-linejoin="round" stroke-linecap="round" stroke-miterlimit="4" stroke-width="2.4" d="M25.333 5.334h-18.667c-1.473 0-2.667 1.194-2.667 2.667v18.667c0 1.473 1.194 2.667 2.667 2.667h18.667c1.473 0 2.667-1.194 2.667-2.667v-18.667c0-1.473-1.194-2.667-2.667-2.667z"></path>
<path fill="none" stroke="#f3f3f3" style="stroke: var(--color1, #f3f3f3)" stroke-linejoin="round" stroke-linecap="round" stroke-miterlimit="4" stroke-width="2.4" d="M21.334 2.666v5.333"></path>
<path fill="none" stroke="#f3f3f3" style="stroke: var(--color1, #f3f3f3)" stroke-linejoin="round" stroke-linecap="round" stroke-miterlimit="4" stroke-width="2.4" d="M10.666 2.666v5.333"></path>
<path fill="none" stroke="#f3f3f3" style="stroke: var(--color1, #f3f3f3)" stroke-linejoin="round" stroke-linecap="round" stroke-miterlimit="4" stroke-width="2.4" d="M4 13.334h24"></path>
</symbol>
<symbol id="icon-camera" viewBox="0 0 32 32">
<path fill="none" stroke="#fff" style="stroke: var(--color2, #fff)" stroke-linejoin="round" stroke-linecap="round" stroke-miterlimit="4" stroke-width="0.64" d="M28.19 11.428v-4.581c0-0.807-0.32-1.58-0.889-2.152s-1.342-0.893-2.149-0.896l-4.581-0.014M28.19 20.571v4.571c0 0.808-0.321 1.583-0.893 2.155s-1.347 0.893-2.155 0.893h-4.571M11.428 3.787l-4.581 0.015c-0.807 0.002-1.58 0.325-2.149 0.896s-0.889 1.345-0.889 2.152v4.579M11.428 28.19h-4.571c-0.808 0-1.583-0.321-2.155-0.893s-0.893-1.347-0.893-2.155v-4.571"></path>
<path fill="#fff" style="fill: var(--color2, #fff)" d="M16 18.75c0.625 0 1.156-0.219 1.594-0.656s0.656-0.969 0.656-1.594c0-0.625-0.219-1.156-0.656-1.594s-0.969-0.656-1.594-0.656-1.156 0.219-1.594 0.656c-0.437 0.438-0.656 0.969-0.656 1.594s0.219 1.156 0.656 1.594c0.438 0.437 0.969 0.656 1.594 0.656zM12 20.5c-0.275 0-0.51-0.098-0.706-0.293s-0.294-0.432-0.294-0.706v-6c0-0.275 0.098-0.51 0.294-0.706s0.431-0.294 0.706-0.294h1.575l0.925-1h3l0.925 1h1.575c0.275 0 0.511 0.098 0.706 0.294s0.294 0.431 0.294 0.706v6c0 0.275-0.098 0.51-0.294 0.706s-0.431 0.293-0.706 0.293h-8z"></path>
</symbol>
<symbol id="icon-close" viewBox="0 0 32 32">
<path fill="#f3f3f3" style="fill: var(--color1, #f3f3f3)" d="M25.333 8.547l-1.88-1.88-7.453 7.453-7.453-7.453-1.88 1.88 7.453 7.453-7.453 7.453 1.88 1.88 7.453-7.453 7.453 7.453 1.88-1.88-7.453-7.453 7.453-7.453z"></path>
</symbol>
<symbol id="icon-logo" viewBox="0 0 32 32">
<path fill="#3a6af5" style="fill: var(--color3, #3a6af5)" d="M4.571 0c-2.521 0-4.571 2.051-4.571 4.571s2.051 4.571 4.571 4.571c2.521 0 4.571-2.051 4.571-4.571s-2.051-4.571-4.571-4.571z"></path>
<path fill="#f3f3f3" style="fill: var(--color1, #f3f3f3)" d="M27.428 0c-2.521 0-4.571 2.051-4.571 4.571s2.051 4.571 4.571 4.571c2.521 0 4.571-2.051 4.571-4.571s-2.051-4.571-4.571-4.571z"></path>
<path fill="#3a6af5" style="fill: var(--color3, #3a6af5)" d="M16 0c-2.521 0-4.571 2.051-4.571 4.571s2.051 4.571 4.571 4.571c2.521 0 4.571-2.051 4.571-4.571s-2.051-4.571-4.571-4.571z"></path>
<path fill="#3a6af5" style="fill: var(--color3, #3a6af5)" d="M27.428 22.857c-2.521 0-4.571 2.051-4.571 4.571s2.051 4.571 4.571 4.571c2.521 0 4.571-2.051 4.571-4.571s-2.051-4.571-4.571-4.571z"></path>
<path fill="#f3f3f3" style="fill: var(--color1, #f3f3f3)" d="M27.428 11.428c-2.521 0-4.571 2.051-4.571 4.571s2.051 4.571 4.571 4.571c2.521 0 4.571-2.051 4.571-4.571s-2.051-4.571-4.571-4.571z"></path>
<path fill="#3a6af5" style="fill: var(--color3, #3a6af5)" d="M16 11.428c-2.521 0-4.571 2.051-4.571 4.571s2.051 4.571 4.571 4.571c2.521 0 4.571-2.051 4.571-4.571s-2.051-4.571-4.571-4.571z"></path>
</symbol>
<symbol id="icon-log-out" viewBox="0 0 32 32">
<path stroke-linejoin="round" stroke-linecap="round" stroke-miterlimit="4" stroke-width="3.4286" d="M12 28h-5.333c-0.707 0-1.386-0.281-1.886-0.781s-0.781-1.178-0.781-1.886v-18.667c0-0.707 0.281-1.386 0.781-1.886s1.178-0.781 1.886-0.781h5.333"></path>
<path stroke-linejoin="round" stroke-linecap="round" stroke-miterlimit="4" stroke-width="3.4286" d="M21.333 22.667l6.667-6.667-6.667-6.667"></path>
<path stroke-linejoin="round" stroke-linecap="round" stroke-miterlimit="4" stroke-width="3.4286" d="M28 16h-16"></path>
</symbol>
<symbol id="icon-open" viewBox="0 0 32 32">
<path fill="#f3f3f3" style="fill: var(--color1, #f3f3f3)" d="M9.867 10.667l-1.867 1.867 8 8 8-8-1.867-1.867-6.133 6.133-6.133-6.133z"></path>
</symbol>
<symbol id="icon-pen" viewBox="0 0 32 32">
<path fill="#3a6af5" style="fill: var(--color3, #3a6af5)" d="M6.769 21.385v3.846h3.846l11.344-11.344-3.846-3.846-11.344 11.344zM24.933 10.913c0.4-0.4 0.4-1.046 0-1.446l-2.4-2.4c-0.4-0.4-1.046-0.4-1.446 0l-1.877 1.877 3.846 3.846 1.877-1.877z"></path>
</symbol>
<symbol id="icon-rectangle" viewBox="0 0 32 32">
<path fill="#3a6af5" style="fill: var(--color3, #3a6af5)" d="M6.4 0h19.2c3.535 0 6.4 2.865 6.4 6.4v19.2c0 3.535-2.865 6.4-6.4 6.4h-19.2c-3.535 0-6.4-2.865-6.4-6.4v-19.2c0-3.535 2.865-6.4 6.4-6.4z"></path>
<path fill="#fff" style="fill: var(--color2, #fff)" d="M18.899 13.971v6.187h-0.666v-5.25h-1.901v5.25h-0.666v-4.312h-1.901v4.312h-0.666v-3.375h-1.901v3.937h9.6v-6.75h-1.901zM12.538 20.158h-0.776v-2.812h0.776v2.812zM15.105 20.158h-0.776v-3.75h0.776v3.75zM17.671 20.158h-0.776v-4.687h0.776v4.687zM20.238 20.158h-0.776v-5.625h0.776v5.625z"></path>
<path fill="#fff" style="fill: var(--color2, #fff)" d="M19.486 11.279l-0.296 0.478 0.602 0.373-8.576 3.109 0.192 0.529 8.56-3.104-0.258 0.658 0.524 0.206 0.564-1.437-1.312-0.812z"></path>
</symbol>
<symbol id="icon-trash" viewBox="0 0 32 32">
<path fill="none" stroke="#fff" style="stroke: var(--color2, #fff)" stroke-linejoin="round" stroke-linecap="round" stroke-miterlimit="4" stroke-width="2.6182" d="M4 8h24"></path>
<path fill="none" stroke="#fff" style="stroke: var(--color2, #fff)" stroke-linejoin="round" stroke-linecap="round" stroke-miterlimit="4" stroke-width="2.6182" d="M25.334 8v18.667c0 0.707-0.281 1.385-0.781 1.886s-1.178 0.781-1.886 0.781h-13.333c-0.707 0-1.386-0.281-1.886-0.781s-0.781-1.178-0.781-1.886v-18.667M10.667 8v-2.667c0-0.707 0.281-1.386 0.781-1.886s1.178-0.781 1.886-0.781h5.333c0.707 0 1.385 0.281 1.886 0.781s0.781 1.178 0.781 1.886v2.667"></path>
<path fill="none" stroke="#fff" style="stroke: var(--color2, #fff)" stroke-linejoin="round" stroke-linecap="round" stroke-miterlimit="4" stroke-width="2.6182" d="M13.333 14.667v8"></path>
<path fill="none" stroke="#fff" style="stroke: var(--color2, #fff)" stroke-linejoin="round" stroke-linecap="round" stroke-miterlimit="4" stroke-width="2.6182" d="M18.667 14.667v8"></path>
</symbol>
</defs>
</svg>
